<svg width="24" height="24" viewBox="0 0 24 24" fill="none" xmlns="http://www.w3.org/2000/svg">
<g clip-path="url(#clip0_7127_3736)">
<path d="M11.9754 2.16153C15.1738 2.16153 15.5492 2.17579 16.8134 2.23282C17.9825 2.28509 18.6146 2.47995 19.0376 2.64628C19.5984 2.8649 19.9976 3.12153 20.4158 3.53975C20.834 3.95797 21.0954 4.35717 21.3092 4.91797C21.4708 5.34094 21.6704 5.97301 21.7227 7.14212C21.7797 8.40628 21.794 8.78173 21.794 11.9801C21.794 15.1786 21.7797 15.554 21.7227 16.8182C21.6704 17.9873 21.4756 18.6194 21.3092 19.0423C21.0906 19.6031 20.834 20.0023 20.4158 20.4205C19.9976 20.8388 19.5984 21.1001 19.0376 21.314C18.6146 21.4756 17.9825 21.6752 16.8134 21.7275C15.5492 21.7845 15.1738 21.7988 11.9754 21.7988C8.77697 21.7988 8.40153 21.7845 7.13737 21.7275C5.96826 21.6752 5.33618 21.4803 4.91321 21.314C4.35242 21.0954 3.95321 20.8388 3.53499 20.4205C3.11678 20.0023 2.85539 19.6031 2.64153 19.0423C2.47995 18.6194 2.28034 17.9873 2.22806 16.8182C2.17103 15.554 2.15678 15.1786 2.15678 11.9801C2.15678 8.78173 2.17103 8.40628 2.22806 7.14212C2.28034 5.97301 2.47519 5.34094 2.64153 4.91797C2.86014 4.35717 3.11678 3.95797 3.53499 3.53975C3.95321 3.12153 4.35242 2.86014 4.91321 2.64628C5.33618 2.4847 5.96826 2.28509 7.13737 2.23282C8.40153 2.17104 8.77697 2.16153 11.9754 2.16153ZM11.9754 0.00390625C8.7247 0.00390625 8.31598 0.0181637 7.03757 0.0751934C5.7639 0.132223 4.8942 0.33658 4.13381 0.631233C3.3449 0.935391 2.67955 1.34886 2.0142 2.0142C1.34886 2.67955 0.940144 3.34965 0.631233 4.13381C0.33658 4.8942 0.132223 5.76391 0.0751934 7.04232C0.0181637 8.31599 0.00390625 8.7247 0.00390625 11.9754C0.00390625 15.2261 0.0181637 15.6348 0.0751934 16.9132C0.132223 18.1869 0.33658 19.0566 0.631233 19.8217C0.935391 20.6106 1.34886 21.276 2.0142 21.9413C2.67955 22.6067 3.34965 23.0154 4.13381 23.3243C4.8942 23.619 5.76391 23.8233 7.04232 23.8803C8.32074 23.9374 8.7247 23.9516 11.9801 23.9516C15.2356 23.9516 15.6395 23.9374 16.918 23.8803C18.1916 23.8233 19.0613 23.619 19.8265 23.3243C20.6154 23.0201 21.2807 22.6067 21.9461 21.9413C22.6114 21.276 23.0201 20.6059 23.3291 19.8217C23.6237 19.0613 23.8281 18.1916 23.8851 16.9132C23.9421 15.6348 23.9564 15.2308 23.9564 11.9754C23.9564 8.71995 23.9421 8.31599 23.8851 7.03757C23.8281 5.76391 23.6237 4.8942 23.3291 4.12905C23.0249 3.34014 22.6114 2.6748 21.9461 2.00945C21.2807 1.3441 20.6106 0.935391 19.8265 0.626481C19.0661 0.331827 18.1964 0.127471 16.918 0.0704409C15.6348 0.0181637 15.2261 0.00390625 11.9754 0.00390625Z" fill="#F9F9F9"/>
<path d="M11.9754 5.82578C8.58211 5.82578 5.82567 8.57746 5.82567 11.9755C5.82567 15.3735 8.58211 18.1252 11.9754 18.1252C15.3686 18.1252 18.1251 15.3688 18.1251 11.9755C18.1251 8.58222 15.3686 5.82578 11.9754 5.82578ZM11.9754 15.9676C9.77022 15.9676 7.98329 14.1806 7.98329 11.9755C7.98329 9.77034 9.77022 7.98341 11.9754 7.98341C14.1805 7.98341 15.9675 9.77034 15.9675 11.9755C15.9675 14.1806 14.1805 15.9676 11.9754 15.9676Z" fill="#F9F9F9"/>
<path d="M18.3675 7.01874C19.1601 7.01874 19.8027 6.37615 19.8027 5.58349C19.8027 4.79082 19.1601 4.14824 18.3675 4.14824C17.5748 4.14824 16.9322 4.79082 16.9322 5.58349C16.9322 6.37615 17.5748 7.01874 18.3675 7.01874Z" fill="#F9F9F9"/>
</g>
<defs>
<clipPath id="clip0_7127_3736">
<rect width="24" height="24" fill="white"/>
</clipPath>
</defs>
</svg>
