<svg width="60" height="74" viewBox="0 0 60 74" fill="none" xmlns="http://www.w3.org/2000/svg">
<rect width="60" height="60" rx="30" fill="#2C5F2D"/>
<path d="M40.6104 22.3389V25.3906C39.4385 25.6999 38.5433 26.1393 37.9248 26.709C37.3226 27.2786 36.8343 28.0111 36.46 28.9062C36.1019 29.7852 35.9229 30.8594 35.9229 32.1289C37.4202 32.1289 38.527 32.5602 39.2432 33.4229C39.9756 34.2692 40.3418 35.1725 40.3418 36.1328C40.3418 37.2721 39.943 38.2324 39.1455 39.0137C38.348 39.7786 37.4202 40.1611 36.3623 40.1611C34.9788 40.1611 33.7907 39.5752 32.7979 38.4033C31.8213 37.2152 31.333 35.5957 31.333 33.5449C31.333 31.7383 31.7236 30.0456 32.5049 28.4668C33.2861 26.888 34.3441 25.5371 35.6787 24.4141C37.0296 23.291 38.6735 22.5993 40.6104 22.3389ZM28.6719 22.3389V25.3906C27.5 25.6999 26.6048 26.1393 25.9863 26.709C25.3841 27.2786 24.8958 28.0111 24.5215 28.9062C24.1634 29.7852 23.9844 30.8594 23.9844 32.1289C25.498 32.1289 26.613 32.5602 27.3291 33.4229C28.0452 34.2692 28.4033 35.1725 28.4033 36.1328C28.4033 37.2721 28.0046 38.2324 27.207 39.0137C26.4095 39.7786 25.4818 40.1611 24.4238 40.1611C23.0566 40.1611 21.8766 39.5752 20.8838 38.4033C19.891 37.2152 19.3945 35.5957 19.3945 33.5449C19.3945 31.7383 19.7852 30.0456 20.5664 28.4668C21.3477 26.888 22.4056 25.5371 23.7402 24.4141C25.0911 23.291 26.735 22.5993 28.6719 22.3389Z" fill="white"/>
</svg>
