<svg width="24" height="24" viewBox="0 0 24 24" fill="none" xmlns="http://www.w3.org/2000/svg">
<path d="M24 3.6143C23.1013 4.03052 22.148 4.30377 21.172 4.42498C22.1871 3.78694 22.968 2.77863 23.3355 1.57542C22.369 2.1753 21.3116 2.59794 20.2089 2.82508C19.2783 1.78556 17.9769 1.19675 16.6153 1.19923C13.8972 1.19923 11.6912 3.50444 11.6912 6.34807C11.6912 6.75213 11.7347 7.14594 11.8198 7.52198C7.72705 7.30689 4.09978 5.25776 1.67078 2.14187C1.24665 2.90147 1.00473 3.78694 1.00473 4.73087C1.00473 6.51655 1.87366 8.09291 3.19457 9.0165C2.4125 8.99143 1.64759 8.77054 0.964005 8.37238V8.43804C0.964005 10.9322 2.66143 13.0135 4.91281 13.4876C4.18772 13.6929 3.42747 13.7231 2.6896 13.5757C3.31645 15.6218 5.13544 17.1102 7.28914 17.1534C5.60428 18.5323 3.48151 19.3571 1.17408 19.3571C0.781722 19.3566 0.389716 19.3326 0 19.285C2.17881 20.7456 4.76751 21.5992 7.54791 21.5992C16.6046 21.5992 21.5563 13.7512 21.5563 6.94543C21.5563 6.72282 21.5563 6.50021 21.541 6.27921C22.5045 5.55006 23.3366 4.64775 23.9985 3.6143H24Z" fill="#F9F9F9"/>
</svg>
