<svg width="24" height="24" viewBox="0 0 24 24" fill="none" xmlns="http://www.w3.org/2000/svg">
<path d="M23.496 6.79152C24 8.71152 24 12.7195 24 12.7195C24 12.7195 24 16.7275 23.496 18.6475C23.232 19.7035 22.416 20.5435 21.384 20.8315C19.512 21.3595 12 21.3595 12 21.3595C12 21.3595 4.488 21.3595 2.616 20.8315C1.584 20.5435 0.768 19.7035 0.504 18.6475C0 16.7275 0 12.7195 0 12.7195C0 12.7195 0 8.71152 0.504 6.79152C0.768 5.73552 1.584 4.89552 2.616 4.60752C4.488 4.10352 12 4.10352 12 4.10352C12 4.10352 19.512 4.10352 21.384 4.60752C22.416 4.89552 23.232 5.73552 23.496 6.79152ZM9.744 16.8475L15.744 13.1035L9.744 9.35952V16.8475Z" fill="#F9F9F9"/>
</svg>
